<svg xmlns="http://www.w3.org/2000/svg" width="255" height="81" viewBox="0 0 255 81" fill="none"><g clip-path="url(#clip0_788_12371)"><path d="M111.415 61.9997C108.813 61.9997 106.4 61.4718 104.289 60.4539C102.14 59.4359 100.406 58.0031 99.1235 56.1934C97.8793 54.459 97.1253 52.4608 96.9367 50.3116L103.949 48.992C104.251 50.6886 104.968 52.0459 106.174 53.064C107.419 54.1197 109.039 54.6475 111.076 54.6475C113.036 54.6475 114.657 54.1573 115.902 53.2147C117.146 52.2722 117.787 51.028 117.787 49.5953C117.787 48.2002 117.146 46.9937 115.939 46.0888C114.733 45.2216 112.998 44.3545 110.736 43.525L107.87 42.4316C101.31 39.9054 97.9925 35.6827 97.9925 29.8763C97.9925 27.6518 98.5579 25.6158 99.6891 23.8437C100.82 22.0717 102.404 20.639 104.326 19.5833C106.287 18.5653 108.512 18.0374 110.924 18.0374C113.225 18.0374 115.411 18.5276 117.372 19.5456C119.333 20.5259 120.916 21.9209 122.085 23.6175C123.217 25.2765 123.857 27.1239 124.008 29.0845L117.108 30.3665C116.882 28.9338 116.316 27.7272 115.411 26.8224C114.468 25.8798 113.112 25.3896 111.377 25.3896C109.869 25.3896 108.549 25.8421 107.493 26.7846C106.438 27.7272 105.873 28.896 105.873 30.2533C105.873 31.6861 106.4 32.8926 107.493 33.8352C108.512 34.7401 110.058 35.5319 112.019 36.2859L115.374 37.5678C118.578 38.8498 121.142 40.5087 123.028 42.507C124.875 44.5052 125.818 47.0314 125.818 50.0477C125.818 52.2345 125.177 54.2705 123.933 56.0802C122.688 57.9277 120.916 59.3604 118.73 60.4162C116.505 61.4718 114.054 61.9997 111.415 61.9997Z" fill="white"></path><path d="M168.043 62L156.318 34.024L144.479 62H144.253L126.72 18.8671H135.619L145.006 43.6384L155.601 18H156.959L167.553 43.6007L176.979 18.8671H185.839L168.308 62H168.043Z" fill="white"></path><path d="M209.86 61.1327L207.07 54.5347H189.5L186.672 61.1327H178.076L198.059 18H198.436L218.418 61.1327H209.86ZM192.064 48.1628H204.431L198.21 33.8355L192.064 48.1628Z" fill="white"></path><path d="M223.128 61.1324V18.8668H237.267C240.02 18.8668 242.509 19.4323 244.658 20.5634C246.807 21.6945 248.503 23.278 249.71 25.2763C250.916 27.2746 251.557 29.6122 251.557 32.1383C251.557 34.7022 250.954 37.0022 249.71 38.9627C248.503 40.961 246.807 42.5445 244.658 43.6756C242.509 44.8067 240.02 45.3723 237.267 45.3723H231.009V61.1324H223.128ZM230.971 38.0955H237.23C239.153 38.0955 240.737 37.5676 241.905 36.512C243.074 35.4563 243.677 34.0235 243.677 32.3268C243.677 30.5548 243.074 29.1221 241.905 28.0664C240.737 27.0107 239.153 26.4828 237.192 26.4828H230.933V38.0955H230.971Z" fill="white"></path><path d="M20.5219 41.7666L27.5335 45.7667V68.4334L7.6786 57.1V26.7333L0.936707 22.9V60.9667L34.2754 80V41.9333L20.5219 34.0666V41.7666Z" fill="white"></path><path d="M38.7587 41.9333V57.6666L45.5007 53.8333V45.7999L65.3553 34.4666V57.1333L38.7587 72.3V80L72.0973 60.9667V22.9L38.7587 41.9333Z" fill="white"></path><path d="M43.5454 26.3667L36.534 30.3666L16.6791 19.0333L36.534 7.7L63.1307 22.8667L69.8727 19.0333L36.534 0L3.19525 19.0333L36.534 38.0667L50.2874 30.2L43.5454 26.3667Z" fill="white"></path></g><defs><clipPath id="clip0_788_12371"><rect width="253.311" height="80" fill="white" transform="translate(0.936707 0.210327)"></rect></clipPath></defs></svg>